<svg width="384" height="61" viewBox="0 0 384 61" fill="none" xmlns="http://www.w3.org/2000/svg">
<path d="M23.4965 0.558985C19.559 -1.48009 11.7989 2.4599 9.56959 5.92851C8.57646 7.48065 8.64672 8.59919 8.64672 9.23379V43.1841L37.7478 61L43.2201 58.0601V24.9967L13.3411 8.11836C14.9445 6.13296 18.5505 3.71197 21.2544 4.68431L47.8681 18.6888L47.8681 55.5216L53.3543 52.5765V15.7445L23.4965 0.558985Z" fill="#54FFE5"/>
<path d="M72.9375 30.0156H67.0938L67.0625 26.7969H71.9688C72.8333 26.7969 73.5417 26.6875 74.0938 26.4688C74.6458 26.2396 75.0573 25.9115 75.3281 25.4844C75.6094 25.0469 75.75 24.5156 75.75 23.8906C75.75 23.1823 75.6146 22.6094 75.3438 22.1719C75.0833 21.7344 74.6719 21.4167 74.1094 21.2188C73.5573 21.0208 72.8438 20.9219 71.9688 20.9219H68.7188V40H64.0312V17.25H71.9688C73.2917 17.25 74.474 17.375 75.5156 17.625C76.5677 17.875 77.4583 18.2552 78.1875 18.7656C78.9167 19.276 79.474 19.9219 79.8594 20.7031C80.2448 21.474 80.4375 22.3906 80.4375 23.4531C80.4375 24.3906 80.224 25.2552 79.7969 26.0469C79.3802 26.8385 78.7188 27.4844 77.8125 27.9844C76.9167 28.4844 75.7448 28.7604 74.2969 28.8125L72.9375 30.0156ZM72.7344 40H65.8125L67.6406 36.3438H72.7344C73.5573 36.3438 74.2292 36.2135 74.75 35.9531C75.2708 35.6823 75.6562 35.3177 75.9062 34.8594C76.1562 34.401 76.2812 33.875 76.2812 33.2812C76.2812 32.6146 76.1667 32.0365 75.9375 31.5469C75.7188 31.0573 75.3646 30.6823 74.875 30.4219C74.3854 30.151 73.7396 30.0156 72.9375 30.0156H68.4219L68.4531 26.7969H74.0781L75.1562 28.0625C76.5417 28.0417 77.6562 28.2865 78.5 28.7969C79.3542 29.2969 79.974 29.9479 80.3594 30.75C80.7552 31.5521 80.9531 32.4115 80.9531 33.3281C80.9531 34.7865 80.6354 36.0156 80 37.0156C79.3646 38.0052 78.4323 38.75 77.2031 39.25C75.9844 39.75 74.4948 40 72.7344 40ZM85.2288 31.7188V31.3906C85.2288 30.151 85.4058 29.0104 85.76 27.9688C86.1142 26.9167 86.6298 26.0052 87.3069 25.2344C87.984 24.4635 88.8173 23.8646 89.8069 23.4375C90.7965 23 91.9319 22.7812 93.2131 22.7812C94.4944 22.7812 95.635 23 96.635 23.4375C97.635 23.8646 98.4735 24.4635 99.1506 25.2344C99.8381 26.0052 100.359 26.9167 100.713 27.9688C101.067 29.0104 101.244 30.151 101.244 31.3906V31.7188C101.244 32.9479 101.067 34.0885 100.713 35.1406C100.359 36.1823 99.8381 37.0938 99.1506 37.875C98.4735 38.6458 97.6402 39.2448 96.6506 39.6719C95.661 40.099 94.5256 40.3125 93.2444 40.3125C91.9631 40.3125 90.8225 40.099 89.8225 39.6719C88.8329 39.2448 87.9944 38.6458 87.3069 37.875C86.6298 37.0938 86.1142 36.1823 85.76 35.1406C85.4058 34.0885 85.2288 32.9479 85.2288 31.7188ZM89.7288 31.3906V31.7188C89.7288 32.4271 89.7913 33.0885 89.9163 33.7031C90.0413 34.3177 90.2392 34.8594 90.51 35.3281C90.7913 35.7865 91.1558 36.1458 91.6038 36.4062C92.0517 36.6667 92.5985 36.7969 93.2444 36.7969C93.8694 36.7969 94.4058 36.6667 94.8538 36.4062C95.3017 36.1458 95.661 35.7865 95.9319 35.3281C96.2027 34.8594 96.4006 34.3177 96.5256 33.7031C96.661 33.0885 96.7288 32.4271 96.7288 31.7188V31.3906C96.7288 30.7031 96.661 30.0573 96.5256 29.4531C96.4006 28.8385 96.1975 28.2969 95.9163 27.8281C95.6454 27.349 95.286 26.974 94.8381 26.7031C94.3902 26.4323 93.8485 26.2969 93.2131 26.2969C92.5777 26.2969 92.036 26.4323 91.5881 26.7031C91.1506 26.974 90.7913 27.349 90.51 27.8281C90.2392 28.2969 90.0413 28.8385 89.9163 29.4531C89.7913 30.0573 89.7288 30.7031 89.7288 31.3906ZM105.051 31.7188V31.3906C105.051 30.151 105.228 29.0104 105.583 27.9688C105.937 26.9167 106.452 26.0052 107.129 25.2344C107.806 24.4635 108.64 23.8646 109.629 23.4375C110.619 23 111.754 22.7812 113.036 22.7812C114.317 22.7812 115.458 23 116.458 23.4375C117.458 23.8646 118.296 24.4635 118.973 25.2344C119.661 26.0052 120.181 26.9167 120.536 27.9688C120.89 29.0104 121.067 30.151 121.067 31.3906V31.7188C121.067 32.9479 120.89 34.0885 120.536 35.1406C120.181 36.1823 119.661 37.0938 118.973 37.875C118.296 38.6458 117.463 39.2448 116.473 39.6719C115.484 40.099 114.348 40.3125 113.067 40.3125C111.786 40.3125 110.645 40.099 109.645 39.6719C108.655 39.2448 107.817 38.6458 107.129 37.875C106.452 37.0938 105.937 36.1823 105.583 35.1406C105.228 34.0885 105.051 32.9479 105.051 31.7188ZM109.551 31.3906V31.7188C109.551 32.4271 109.614 33.0885 109.739 33.7031C109.864 34.3177 110.062 34.8594 110.333 35.3281C110.614 35.7865 110.978 36.1458 111.426 36.4062C111.874 36.6667 112.421 36.7969 113.067 36.7969C113.692 36.7969 114.228 36.6667 114.676 36.4062C115.124 36.1458 115.484 35.7865 115.754 35.3281C116.025 34.8594 116.223 34.3177 116.348 33.7031C116.484 33.0885 116.551 32.4271 116.551 31.7188V31.3906C116.551 30.7031 116.484 30.0573 116.348 29.4531C116.223 28.8385 116.02 28.2969 115.739 27.8281C115.468 27.349 115.109 26.974 114.661 26.7031C114.213 26.4323 113.671 26.2969 113.036 26.2969C112.4 26.2969 111.859 26.4323 111.411 26.7031C110.973 26.974 110.614 27.349 110.333 27.8281C110.062 28.2969 109.864 28.8385 109.739 29.4531C109.614 30.0573 109.551 30.7031 109.551 31.3906ZM130.092 15.9844V40H125.592V15.9844H130.092ZM140.749 23.0938L133.405 31.4688L129.467 35.4531L127.827 32.2031L130.952 28.2344L135.342 23.0938H140.749ZM136.077 40L131.077 32.1875L134.186 29.4688L141.264 40H136.077ZM149.274 35.625L152.79 23.0938H155.649L154.728 28.0156L151.212 40H148.821L149.274 35.625ZM147.493 23.0938L150.009 35.6094L150.243 40H147.431L143.149 23.0938H147.493ZM158.868 35.4062L161.321 23.0938H165.681L161.399 40H158.603L158.868 35.4062ZM156.04 23.0938L159.54 35.5312L160.024 40H157.618L154.103 28.0312L153.212 23.0938H156.04ZM168.988 31.7188V31.3906C168.988 30.151 169.165 29.0104 169.519 27.9688C169.873 26.9167 170.389 26.0052 171.066 25.2344C171.743 24.4635 172.576 23.8646 173.566 23.4375C174.555 23 175.691 22.7812 176.972 22.7812C178.253 22.7812 179.394 23 180.394 23.4375C181.394 23.8646 182.232 24.4635 182.909 25.2344C183.597 26.0052 184.118 26.9167 184.472 27.9688C184.826 29.0104 185.003 30.151 185.003 31.3906V31.7188C185.003 32.9479 184.826 34.0885 184.472 35.1406C184.118 36.1823 183.597 37.0938 182.909 37.875C182.232 38.6458 181.399 39.2448 180.409 39.6719C179.42 40.099 178.284 40.3125 177.003 40.3125C175.722 40.3125 174.581 40.099 173.581 39.6719C172.592 39.2448 171.753 38.6458 171.066 37.875C170.389 37.0938 169.873 36.1823 169.519 35.1406C169.165 34.0885 168.988 32.9479 168.988 31.7188ZM173.488 31.3906V31.7188C173.488 32.4271 173.55 33.0885 173.675 33.7031C173.8 34.3177 173.998 34.8594 174.269 35.3281C174.55 35.7865 174.915 36.1458 175.363 36.4062C175.81 36.6667 176.357 36.7969 177.003 36.7969C177.628 36.7969 178.165 36.6667 178.613 36.4062C179.06 36.1458 179.42 35.7865 179.691 35.3281C179.961 34.8594 180.159 34.3177 180.284 33.7031C180.42 33.0885 180.488 32.4271 180.488 31.7188V31.3906C180.488 30.7031 180.42 30.0573 180.284 29.4531C180.159 28.8385 179.956 28.2969 179.675 27.8281C179.404 27.349 179.045 26.974 178.597 26.7031C178.149 26.4323 177.607 26.2969 176.972 26.2969C176.336 26.2969 175.795 26.4323 175.347 26.7031C174.909 26.974 174.55 27.349 174.269 27.8281C173.998 28.2969 173.8 28.8385 173.675 29.4531C173.55 30.0573 173.488 30.7031 173.488 31.3906ZM194.029 26.7812V40H189.529V23.0938H193.763L194.029 26.7812ZM199.122 22.9844L199.044 27.1562C198.826 27.125 198.56 27.099 198.247 27.0781C197.945 27.0469 197.669 27.0312 197.419 27.0312C196.784 27.0312 196.232 27.1146 195.763 27.2812C195.305 27.4375 194.919 27.6719 194.607 27.9844C194.305 28.2969 194.076 28.6771 193.919 29.125C193.774 29.5729 193.69 30.0833 193.669 30.6562L192.763 30.375C192.763 29.2812 192.872 28.276 193.091 27.3594C193.31 26.4323 193.628 25.625 194.044 24.9375C194.471 24.25 194.992 23.7188 195.607 23.3438C196.221 22.9688 196.925 22.7812 197.716 22.7812C197.966 22.7812 198.221 22.8021 198.482 22.8438C198.742 22.875 198.956 22.9219 199.122 22.9844ZM207.508 26.5938V40H202.992V23.0938H207.226L207.508 26.5938ZM206.883 30.9531H205.633C205.633 29.776 205.773 28.6927 206.054 27.7031C206.346 26.7031 206.768 25.8385 207.32 25.1094C207.883 24.3698 208.575 23.7969 209.398 23.3906C210.221 22.9844 211.174 22.7812 212.258 22.7812C213.008 22.7812 213.695 22.8958 214.32 23.125C214.945 23.3438 215.481 23.6927 215.929 24.1719C216.388 24.6406 216.742 25.2552 216.992 26.0156C217.242 26.7656 217.367 27.6667 217.367 28.7188V40H212.867V29.2188C212.867 28.4479 212.763 27.8542 212.554 27.4375C212.346 27.0208 212.049 26.7292 211.664 26.5625C211.289 26.3958 210.836 26.3125 210.304 26.3125C209.721 26.3125 209.211 26.4323 208.773 26.6719C208.346 26.9115 207.992 27.2448 207.711 27.6719C207.429 28.0885 207.221 28.5781 207.086 29.1406C206.95 29.7031 206.883 30.3073 206.883 30.9531ZM216.945 30.4375L215.336 30.6406C215.336 29.5365 215.471 28.5104 215.742 27.5625C216.023 26.6146 216.435 25.7812 216.976 25.0625C217.528 24.3438 218.211 23.7865 219.023 23.3906C219.836 22.9844 220.773 22.7812 221.836 22.7812C222.648 22.7812 223.388 22.901 224.054 23.1406C224.721 23.3698 225.289 23.7396 225.758 24.25C226.237 24.75 226.601 25.4062 226.851 26.2188C227.112 27.0312 227.242 28.026 227.242 29.2031V40H222.726V29.2031C222.726 28.4219 222.622 27.8281 222.414 27.4219C222.216 27.0052 221.924 26.7188 221.539 26.5625C221.164 26.3958 220.716 26.3125 220.195 26.3125C219.653 26.3125 219.179 26.4219 218.773 26.6406C218.367 26.849 218.028 27.1406 217.758 27.5156C217.487 27.8906 217.284 28.3281 217.148 28.8281C217.013 29.3177 216.945 29.8542 216.945 30.4375ZM245.668 17.25V40H243.746V17.25H245.668ZM255.038 26.7031V40H253.178V23.0938H254.959L255.038 26.7031ZM254.616 30.5L253.788 30.0312C253.85 29.0312 254.053 28.0938 254.397 27.2188C254.741 26.3438 255.204 25.5729 255.788 24.9062C256.381 24.2396 257.074 23.7188 257.866 23.3438C258.668 22.9688 259.553 22.7812 260.522 22.7812C261.366 22.7812 262.121 22.8958 262.788 23.125C263.454 23.3542 264.022 23.7188 264.491 24.2188C264.959 24.7188 265.314 25.3594 265.553 26.1406C265.803 26.9219 265.928 27.875 265.928 29V40H264.053V28.9844C264.053 27.8177 263.892 26.9062 263.569 26.25C263.246 25.5833 262.788 25.1094 262.194 24.8281C261.6 24.5469 260.897 24.4062 260.084 24.4062C259.189 24.4062 258.402 24.6042 257.725 25C257.058 25.3854 256.496 25.8906 256.038 26.5156C255.59 27.1302 255.246 27.7917 255.006 28.5C254.767 29.1979 254.636 29.8646 254.616 30.5ZM282.657 35.6875C282.657 35.2292 282.542 34.776 282.313 34.3281C282.084 33.8802 281.641 33.4688 280.985 33.0938C280.339 32.7188 279.386 32.401 278.126 32.1406C277.188 31.9323 276.35 31.6979 275.61 31.4375C274.881 31.1771 274.266 30.8646 273.766 30.5C273.266 30.1354 272.886 29.6979 272.626 29.1875C272.365 28.6771 272.235 28.0729 272.235 27.375C272.235 26.75 272.37 26.1615 272.641 25.6094C272.923 25.0469 273.318 24.5573 273.829 24.1406C274.35 23.7135 274.975 23.3802 275.704 23.1406C276.443 22.901 277.271 22.7812 278.188 22.7812C279.49 22.7812 280.605 23.0052 281.532 23.4531C282.469 23.8906 283.183 24.4896 283.673 25.25C284.173 26.0104 284.423 26.8698 284.423 27.8281H282.563C282.563 27.2448 282.391 26.6927 282.048 26.1719C281.714 25.651 281.219 25.224 280.563 24.8906C279.917 24.5573 279.126 24.3906 278.188 24.3906C277.219 24.3906 276.433 24.5365 275.829 24.8281C275.225 25.1198 274.782 25.4896 274.501 25.9375C274.23 26.3854 274.094 26.849 274.094 27.3281C274.094 27.7031 274.152 28.0469 274.266 28.3594C274.391 28.6615 274.61 28.9427 274.923 29.2031C275.245 29.4635 275.704 29.7083 276.298 29.9375C276.891 30.1667 277.662 30.3906 278.61 30.6094C279.975 30.9115 281.089 31.2812 281.954 31.7188C282.829 32.1458 283.475 32.6771 283.891 33.3125C284.308 33.9375 284.516 34.6979 284.516 35.5938C284.516 36.2917 284.37 36.9323 284.079 37.5156C283.787 38.0885 283.365 38.5833 282.813 39C282.271 39.4167 281.615 39.7396 280.844 39.9688C280.084 40.1979 279.23 40.3125 278.282 40.3125C276.855 40.3125 275.646 40.0781 274.657 39.6094C273.678 39.1302 272.933 38.5052 272.423 37.7344C271.923 36.9531 271.673 36.125 271.673 35.25H273.532C273.594 36.125 273.87 36.8177 274.36 37.3281C274.85 37.8281 275.449 38.1823 276.157 38.3906C276.876 38.599 277.584 38.7031 278.282 38.7031C279.24 38.7031 280.042 38.5625 280.688 38.2812C281.334 38 281.824 37.6302 282.157 37.1719C282.49 36.7135 282.657 36.2188 282.657 35.6875ZM296.901 23.0938V24.625H288.432V23.0938H296.901ZM291.542 18.75H293.401V35.8906C293.401 36.6719 293.505 37.2604 293.714 37.6562C293.922 38.0521 294.193 38.3177 294.526 38.4531C294.86 38.5885 295.219 38.6562 295.604 38.6562C295.886 38.6562 296.156 38.6406 296.417 38.6094C296.677 38.5677 296.912 38.526 297.12 38.4844L297.198 40.0625C296.969 40.1354 296.672 40.1927 296.307 40.2344C295.943 40.2865 295.578 40.3125 295.214 40.3125C294.495 40.3125 293.86 40.1823 293.307 39.9219C292.755 39.651 292.323 39.1927 292.011 38.5469C291.698 37.8906 291.542 37 291.542 35.875V18.75ZM304.661 23.0938V40H302.802V23.0938H304.661ZM302.474 18.2031C302.474 17.849 302.583 17.5521 302.802 17.3125C303.031 17.0625 303.344 16.9375 303.739 16.9375C304.135 16.9375 304.448 17.0625 304.677 17.3125C304.916 17.5521 305.036 17.849 305.036 18.2031C305.036 18.5469 304.916 18.8438 304.677 19.0938C304.448 19.3333 304.135 19.4531 303.739 19.4531C303.344 19.4531 303.031 19.3333 302.802 19.0938C302.583 18.8438 302.474 18.5469 302.474 18.2031ZM317.921 23.0938V24.625H309.452V23.0938H317.921ZM312.562 18.75H314.421V35.8906C314.421 36.6719 314.525 37.2604 314.734 37.6562C314.942 38.0521 315.213 38.3177 315.546 38.4531C315.88 38.5885 316.239 38.6562 316.624 38.6562C316.906 38.6562 317.176 38.6406 317.437 38.6094C317.697 38.5677 317.932 38.526 318.14 38.4844L318.218 40.0625C317.989 40.1354 317.692 40.1927 317.327 40.2344C316.963 40.2865 316.598 40.3125 316.234 40.3125C315.515 40.3125 314.88 40.1823 314.327 39.9219C313.775 39.651 313.343 39.1927 313.031 38.5469C312.718 37.8906 312.562 37 312.562 35.875V18.75ZM334.431 36.0938V23.0938H336.306V40H334.509L334.431 36.0938ZM334.775 32.9688L335.744 32.9375C335.744 34 335.619 34.9792 335.369 35.875C335.119 36.7708 334.728 37.5521 334.197 38.2188C333.666 38.8854 332.978 39.401 332.134 39.7656C331.291 40.1302 330.275 40.3125 329.087 40.3125C328.265 40.3125 327.509 40.1979 326.822 39.9688C326.145 39.7292 325.561 39.3542 325.072 38.8438C324.582 38.3333 324.202 37.6719 323.931 36.8594C323.671 36.0469 323.541 35.0625 323.541 33.9062V23.0938H325.4V33.9375C325.4 34.8438 325.499 35.599 325.697 36.2031C325.905 36.8073 326.186 37.2917 326.541 37.6562C326.905 38.0208 327.322 38.2812 327.791 38.4375C328.259 38.5938 328.765 38.6719 329.306 38.6719C330.681 38.6719 331.765 38.4062 332.556 37.875C333.358 37.3438 333.926 36.6458 334.259 35.7812C334.603 34.9062 334.775 33.9688 334.775 32.9688ZM349.348 23.0938V24.625H340.879V23.0938H349.348ZM343.988 18.75H345.848V35.8906C345.848 36.6719 345.952 37.2604 346.16 37.6562C346.368 38.0521 346.639 38.3177 346.973 38.4531C347.306 38.5885 347.665 38.6562 348.051 38.6562C348.332 38.6562 348.603 38.6406 348.863 38.6094C349.124 38.5677 349.358 38.526 349.566 38.4844L349.644 40.0625C349.415 40.1354 349.118 40.1927 348.754 40.2344C348.389 40.2865 348.025 40.3125 347.66 40.3125C346.941 40.3125 346.306 40.1823 345.754 39.9219C345.202 39.651 344.769 39.1927 344.457 38.5469C344.144 37.8906 343.988 37 343.988 35.875V18.75ZM361.561 40.3125C360.456 40.3125 359.441 40.1094 358.514 39.7031C357.597 39.2969 356.795 38.724 356.108 37.9844C355.43 37.2448 354.904 36.3698 354.529 35.3594C354.165 34.3385 353.983 33.224 353.983 32.0156V31.3438C353.983 30.0417 354.175 28.8646 354.561 27.8125C354.946 26.7604 355.477 25.8594 356.154 25.1094C356.831 24.3594 357.602 23.7865 358.467 23.3906C359.342 22.9844 360.259 22.7812 361.217 22.7812C362.29 22.7812 363.243 22.974 364.076 23.3594C364.91 23.7344 365.608 24.2708 366.17 24.9688C366.743 25.6562 367.175 26.474 367.467 27.4219C367.759 28.3594 367.904 29.3958 367.904 30.5312V31.6719H355.108V30.0781H366.045V29.8594C366.024 28.9115 365.831 28.026 365.467 27.2031C365.113 26.3698 364.581 25.6927 363.873 25.1719C363.165 24.651 362.279 24.3906 361.217 24.3906C360.425 24.3906 359.696 24.5573 359.029 24.8906C358.373 25.224 357.805 25.7031 357.326 26.3281C356.858 26.9427 356.493 27.6771 356.233 28.5312C355.983 29.375 355.858 30.3125 355.858 31.3438V32.0156C355.858 32.9531 355.993 33.8281 356.264 34.6406C356.545 35.4427 356.941 36.151 357.451 36.7656C357.972 37.3802 358.587 37.8594 359.295 38.2031C360.003 38.5469 360.785 38.7188 361.639 38.7188C362.639 38.7188 363.524 38.5365 364.295 38.1719C365.066 37.7969 365.759 37.2083 366.373 36.4062L367.545 37.3125C367.18 37.8542 366.722 38.3542 366.17 38.8125C365.628 39.2708 364.977 39.6354 364.217 39.9062C363.456 40.1771 362.571 40.3125 361.561 40.3125Z" fill="white"/>
</svg>
